<svg xmlns="http://www.w3.org/2000/svg" viewBox="0 0 1200 760" role="img" aria-labelledby="title desc">
  <title id="title">Development challenges</title><desc id="desc">Connected challenges of poverty, jobs, inequality, infrastructure, education, and health.</desc>
  <rect width="1200" height="760" rx="40" fill="#f7f3ed"/><circle cx="600" cy="380" r="130" fill="#2d5016"/><text x="600" y="370" text-anchor="middle" font-family="Arial,sans-serif" font-size="31" font-weight="700" fill="white">Inclusive</text><text x="600" y="414" text-anchor="middle" font-family="Arial,sans-serif" font-size="31" font-weight="700" fill="white">development</text>
  <g stroke="#d4a574" stroke-width="12" stroke-linecap="round"><path d="M490 310 310 205M600 250V145M710 310l180-105M490 450 310 555M600 510v105M710 450l180 105"/></g>
  <g font-family="Arial,sans-serif" text-anchor="middle" fill="#2c3e50" font-size="26" font-weight="700"><g><circle cx="260" cy="175" r="78" fill="#fff" stroke="#4a7c9e" stroke-width="7"/><text x="260" y="184">Poverty</text></g><g><circle cx="600" cy="110" r="78" fill="#fff" stroke="#4a7c9e" stroke-width="7"/><text x="600" y="119">Jobs</text></g><g><circle cx="940" cy="175" r="78" fill="#fff" stroke="#4a7c9e" stroke-width="7"/><text x="940" y="184">Inequality</text></g><g><circle cx="260" cy="585" r="78" fill="#fff" stroke="#d4a574" stroke-width="7"/><text x="260" y="594">Infrastructure</text></g><g><circle cx="600" cy="660" r="78" fill="#fff" stroke="#d4a574" stroke-width="7"/><text x="600" y="669">Education &amp; health</text></g><g><circle cx="940" cy="585" r="78" fill="#fff" stroke="#d4a574" stroke-width="7"/><text x="940" y="594">Opportunity</text></g></g>
</svg>
