<svg xmlns="http://www.w3.org/2000/svg" viewBox="0 0 1200 760" role="img" aria-labelledby="title desc">
  <title id="title">Sustainable development cycle</title><desc id="desc">A circular system connecting people, prosperity, and the planet.</desc>
  <rect width="1200" height="760" rx="40" fill="#edf4e8"/><circle cx="600" cy="375" r="110" fill="#2d5016"/><path d="M600 445s-75-42-75-92a38 38 0 0 1 75-15 38 38 0 0 1 75 15c0 50-75 92-75 92" fill="#d4a574"/><path d="M600 205c180-20 290 100 280 220M865 425c-35 170-190 250-315 205M510 635c-165-45-240-190-205-320" fill="none" stroke="#4a7c9e" stroke-width="18" stroke-linecap="round"/><path d="m845 390 48 38-52 23M570 620l-4 60-50-29M330 340l-45-40 56-17" fill="#4a7c9e"/>
  <g font-family="Arial,sans-serif" text-anchor="middle" fill="#2c3e50"><text x="600" y="105" font-size="34" font-weight="700">Prosperity</text><text x="890" y="555" font-size="34" font-weight="700">Planet</text><text x="310" y="555" font-size="34" font-weight="700">People</text><text x="600" y="535" font-size="23" fill="white">Long-term wellbeing</text></g>
</svg>
